<?xml version="1.0" encoding="iso-8859-1"?>
<!-- Generator: Adobe Illustrator 28.0.0, SVG Export Plug-In . SVG Version: 6.00 Build 0)  -->
<svg version="1.1" id="Calque_1" xmlns="http://www.w3.org/2000/svg" xmlns:xlink="http://www.w3.org/1999/xlink" x="0px" y="0px"
	 viewBox="0 0 240.908 62.41" style="enable-background:new 0 0 240.908 62.41;" xml:space="preserve">
<g id="subtitle">
	<g>
		<path style="fill:#FFFFFF;" d="M88.31,47.687c1.231,0.688,2.202,1.632,2.912,2.834c0.709,1.202,1.063,2.527,1.063,3.976
			s-0.354,2.771-1.063,3.965c-0.71,1.195-1.685,2.136-2.924,2.822c-1.239,0.688-2.613,1.03-4.121,1.03h-6.25V46.656h6.295
			C85.716,46.656,87.078,47,88.31,47.687z M87.514,60.073c0.986-0.566,1.767-1.34,2.341-2.318c0.575-0.978,0.863-2.063,0.863-3.259
			c0-1.194-0.292-2.285-0.874-3.271s-1.37-1.762-2.363-2.329s-2.087-0.852-3.281-0.852h-4.727v12.88h4.793
			C85.446,60.925,86.529,60.642,87.514,60.073z"/>
		<path style="fill:#FFFFFF;" d="M128.304,62.314H126.4l-5.936-7.616l-3.181,3.45v4.166h-1.546v-15.68h1.546v9.542l8.691-9.542
			h1.881l-6.294,6.854L128.304,62.314z"/>
		<path style="fill:#FFFFFF;" d="M162.037,62.314l-3.382-5.107c-0.479,0.03-0.844,0.045-1.098,0.045h-4.301v5.062h-1.546V46.656
			h5.847c1.956,0,3.468,0.452,4.536,1.355c1.067,0.903,1.602,2.184,1.602,3.841c0,1.3-0.313,2.383-0.941,3.248
			c-0.627,0.866-1.522,1.472-2.688,1.814l3.763,5.398H162.037z M157.557,55.862c1.493,0,2.643-0.339,3.449-1.019
			s1.21-1.661,1.21-2.946c0-1.254-0.403-2.21-1.21-2.867c-0.807-0.656-1.956-0.985-3.449-0.985h-4.301v7.817H157.557z"/>
	</g>
	<g>
		<g>
			<polygon style="fill:#FFFFFF;" points="56.752,54.906 70.562,55.533 70.562,54.274 			"/>
		</g>
		<g>
			<polygon style="fill:#FFFFFF;" points="184.156,54.901 170.346,54.274 170.346,55.533 			"/>
		</g>
	</g>
	<g>
		<g>
			<path style="fill:#FFFFFF;" d="M109.68,62.401c-0.038-0.141-0.05-0.225-0.082-0.301c-0.721-1.73-1.448-3.458-2.165-5.19
				c-0.389-0.939-0.764-1.883-1.134-2.829c-0.037-0.096-0.038-0.255,0.018-0.33c0.155-0.207,0.348-0.386,0.527-0.575
				c0.414-0.436,0.829-0.872,1.244-1.308c-0.03-0.034-0.06-0.068-0.09-0.102c-0.729,0.465-1.301,1.131-1.98,1.704
				c-0.972-2.312-1.888-4.61-2.876-6.876c-0.041,0.011-0.082,0.022-0.123,0.033c-0.669,2.318-1.337,4.635-2.006,6.953
				c0.035,0.012,0.071,0.024,0.106,0.036c0.656-1.043,1.313-2.086,1.985-3.154c0.06,0.078,0.1,0.111,0.117,0.154
				c0.514,1.249,1.031,2.498,1.529,3.754c0.038,0.097-0.019,0.29-0.1,0.366c-0.885,0.837-1.781,1.663-2.68,2.486
				c-1.777,1.627-3.558,3.251-5.335,4.878c-0.071,0.065-0.125,0.15-0.249,0.303c0.515,0,0.923,0.019,1.327-0.009
				c0.165-0.012,0.359-0.089,0.476-0.203c0.416-0.406,0.801-0.842,1.203-1.262c1.648-1.723,3.299-3.445,4.948-5.167
				c0.218-0.228,0.439-0.454,0.699-0.724c0.058,0.095,0.091,0.135,0.109,0.18c0.474,1.187,0.947,2.374,1.419,3.562
				c0.448,1.13,0.891,2.262,1.345,3.39c0.037,0.091,0.139,0.217,0.215,0.22C108.632,62.41,109.137,62.401,109.68,62.401z"/>
			<path style="fill:#FFFFFF;" d="M109.68,62.401c-0.543,0-1.048,0.009-1.552-0.01c-0.076-0.003-0.178-0.129-0.215-0.22
				c-0.454-1.128-0.897-2.26-1.345-3.39c-0.471-1.188-0.945-2.375-1.419-3.562c-0.018-0.045-0.051-0.085-0.109-0.18
				c-0.26,0.269-0.481,0.496-0.699,0.724c-1.65,1.722-3.3,3.443-4.948,5.167c-0.402,0.42-0.787,0.856-1.203,1.262
				c-0.117,0.114-0.311,0.191-0.476,0.203c-0.405,0.029-0.813,0.009-1.327,0.009c0.125-0.153,0.178-0.238,0.249-0.303
				c1.777-1.627,3.558-3.25,5.335-4.878c0.898-0.823,1.794-1.649,2.68-2.486c0.081-0.076,0.138-0.269,0.1-0.366
				c-0.498-1.256-1.015-2.504-1.529-3.754c-0.017-0.042-0.057-0.076-0.117-0.154c-0.672,1.068-1.329,2.111-1.985,3.154
				c-0.035-0.012-0.071-0.024-0.106-0.036c0.669-2.318,1.337-4.635,2.006-6.953c0.041-0.011,0.082-0.022,0.123-0.033
				c0.987,2.267,1.904,4.564,2.876,6.876c0.679-0.573,1.251-1.239,1.98-1.704c0.03,0.034,0.06,0.068,0.09,0.102
				c-0.415,0.436-0.83,0.872-1.244,1.308c-0.179,0.189-0.372,0.368-0.527,0.575c-0.056,0.075-0.056,0.234-0.018,0.33
				c0.37,0.946,0.745,1.89,1.134,2.829c0.717,1.732,1.444,3.459,2.165,5.19C109.629,62.176,109.642,62.26,109.68,62.401z"/>
		</g>
	</g>
	<g>
		<g>
			<path style="fill:#FFFFFF;" d="M146.297,62.338c-0.038-0.141-0.05-0.225-0.082-0.301c-0.721-1.73-1.448-3.458-2.165-5.19
				c-0.389-0.939-0.764-1.883-1.134-2.829c-0.037-0.096-0.038-0.255,0.018-0.33c0.155-0.207,0.348-0.386,0.527-0.575
				c0.414-0.436,0.829-0.872,1.244-1.308c-0.03-0.034-0.06-0.068-0.09-0.102c-0.729,0.465-1.301,1.131-1.98,1.704
				c-0.972-2.312-1.888-4.61-2.876-6.876c-0.041,0.011-0.082,0.022-0.123,0.033c-0.669,2.318-1.337,4.635-2.006,6.953
				c0.035,0.012,0.071,0.024,0.106,0.036c0.656-1.043,1.313-2.086,1.985-3.154c0.06,0.078,0.1,0.111,0.117,0.154
				c0.514,1.249,1.031,2.498,1.529,3.754c0.038,0.097-0.019,0.29-0.1,0.366c-0.885,0.837-1.781,1.663-2.68,2.486
				c-1.777,1.627-3.558,3.251-5.335,4.878c-0.071,0.065-0.125,0.15-0.249,0.303c0.515,0,0.923,0.019,1.327-0.009
				c0.165-0.012,0.359-0.089,0.476-0.203c0.416-0.406,0.801-0.842,1.203-1.262c1.648-1.723,3.299-3.445,4.948-5.167
				c0.218-0.228,0.439-0.454,0.699-0.724c0.058,0.095,0.091,0.135,0.109,0.18c0.474,1.187,0.947,2.374,1.419,3.562
				c0.448,1.13,0.891,2.262,1.345,3.39c0.036,0.091,0.139,0.217,0.215,0.22C145.249,62.348,145.754,62.338,146.297,62.338z"/>
			<path style="fill:#FFFFFF;" d="M146.297,62.338c-0.543,0-1.048,0.009-1.552-0.01c-0.076-0.003-0.178-0.129-0.215-0.22
				c-0.454-1.128-0.897-2.26-1.345-3.39c-0.471-1.188-0.945-2.375-1.419-3.562c-0.018-0.045-0.051-0.085-0.109-0.18
				c-0.26,0.269-0.481,0.496-0.699,0.724c-1.65,1.722-3.3,3.443-4.948,5.167c-0.402,0.42-0.787,0.856-1.203,1.262
				c-0.117,0.114-0.311,0.191-0.476,0.203c-0.405,0.029-0.813,0.009-1.327,0.009c0.125-0.153,0.178-0.238,0.249-0.303
				c1.777-1.627,3.558-3.25,5.335-4.878c0.898-0.823,1.794-1.649,2.68-2.486c0.081-0.076,0.138-0.269,0.1-0.366
				c-0.498-1.256-1.015-2.504-1.529-3.754c-0.017-0.042-0.057-0.076-0.117-0.154c-0.672,1.068-1.329,2.111-1.985,3.154
				c-0.035-0.012-0.071-0.024-0.106-0.036c0.669-2.318,1.337-4.635,2.006-6.953c0.041-0.011,0.082-0.022,0.123-0.033
				c0.987,2.267,1.904,4.564,2.876,6.876c0.679-0.573,1.251-1.239,1.98-1.704c0.03,0.034,0.06,0.068,0.09,0.102
				c-0.415,0.436-0.83,0.872-1.244,1.308c-0.179,0.189-0.372,0.368-0.527,0.575c-0.056,0.075-0.056,0.234-0.018,0.33
				c0.37,0.946,0.745,1.89,1.134,2.829c0.717,1.732,1.444,3.459,2.165,5.19C146.247,62.113,146.259,62.197,146.297,62.338z"/>
		</g>
	</g>
</g>
<g id="title">
	<polygon style="fill:#FFFFFF;" points="1.59,0.418 0.436,0.418 0,0.418 0,4.937 1.145,1.681 12.273,1.681 12.273,30.956 
		15.322,30.956 15.322,1.681 26.45,1.681 27.595,4.937 27.595,0.418 26.005,0.418 	"/>
	<polygon style="fill:#FFFFFF;" points="57.04,1.704 57.476,0.441 38.526,0.441 38.526,30.979 57.04,30.979 57.476,29.715 
		41.575,29.715 41.575,16.341 55.428,15.707 41.575,15.078 41.575,1.704 	"/>
	<path style="fill:#FFFFFF;" d="M185.178,20.567c0,1.307-0.218,2.534-0.653,3.681c-0.436,1.148-1.053,2.15-1.851,3.006
		c-0.799,0.857-1.75,1.532-2.854,2.026c-1.104,0.494-2.324,0.741-3.659,0.741c-1.307,0-2.505-0.24-3.594-0.719
		c-1.089-0.479-2.033-1.139-2.832-1.982c-0.799-0.842-1.416-1.836-1.852-2.984c-0.436-1.147-0.653-2.403-0.653-3.768V0.441
		l-3.05,0.871v19.211c0,1.568,0.29,3.013,0.871,4.335c0.58,1.322,1.394,2.461,2.439,3.42c1.046,0.958,2.309,1.706,3.79,2.243
		c1.481,0.537,3.107,0.806,4.879,0.806c1.423,0,2.759-0.269,4.008-0.806c1.248-0.537,2.337-1.285,3.267-2.243
		c0.929-0.959,1.662-2.098,2.2-3.42c0.537-1.321,0.806-2.766,0.806-4.335V0.441l-1.264,0.871V20.567z"/>
	<path style="fill:#FFFFFF;" d="M151.656,17.723c-0.294,1.793-0.831,3.454-1.609,4.982c-0.779,1.529-1.741,2.844-2.888,3.946
		c-1.146,1.102-2.44,1.969-3.879,2.601c-1.441,0.632-2.954,0.948-4.541,0.948c-0.617,0-1.235-0.044-1.852-0.132
		c-1.793-0.265-3.395-0.889-4.805-1.874c-1.411-0.984-2.579-2.211-3.505-3.681c-0.926-1.469-1.565-3.123-1.918-4.96
		c-0.137-0.712-0.224-1.435-0.264-2.167h-2.966c0.154,1.586,0.54,3.102,1.158,4.547c0.822,1.925,1.947,3.601,3.372,5.026
		c1.425,1.426,3.101,2.55,5.026,3.373c1.925,0.823,3.975,1.234,6.15,1.234c2.175,0,4.225-0.411,6.15-1.234
		c1.925-0.822,3.6-1.947,5.026-3.373c1.425-1.425,2.55-3.101,3.373-5.026c0.618-1.445,1.004-2.961,1.158-4.547h-3.134
		C151.691,17.498,151.674,17.61,151.656,17.723z"/>
	<path style="fill:#FFFFFF;" d="M150.311,4.607c-1.426-1.425-3.101-2.549-5.026-3.373C143.36,0.412,141.31,0,139.135,0
		c-2.176,0-4.226,0.412-6.15,1.234c-1.925,0.823-3.601,1.947-5.026,3.373c-1.426,1.426-2.55,3.101-3.372,5.026
		c-0.633,1.481-1.022,3.037-1.168,4.666h3.09c0.019-0.152,0.039-0.303,0.062-0.456c0.294-1.822,0.83-3.497,1.609-5.026
		c0.778-1.528,1.741-2.844,2.888-3.946c1.146-1.102,2.447-1.969,3.902-2.601c1.455-0.632,2.976-0.948,4.563-0.948
		c0.588,0,1.19,0.044,1.808,0.132c1.792,0.294,3.395,0.933,4.806,1.918c1.411,0.985,2.579,2.212,3.505,3.681
		c0.926,1.47,1.572,3.123,1.94,4.96c0.15,0.751,0.241,1.512,0.276,2.285h2.986c-0.146-1.629-0.535-3.184-1.168-4.666
		C152.861,7.708,151.737,6.033,150.311,4.607z"/>
	<path style="fill:#FFFFFF;" d="M113.799,29.193c-0.378-0.523-0.581-1.118-0.61-1.786c-0.029-0.377-0.059-0.791-0.087-1.242
		c-0.029-0.45-0.065-0.915-0.109-1.394c-0.044-0.479-0.087-0.951-0.131-1.416c-0.044-0.464-0.08-0.886-0.109-1.263
		c-0.058-1.365-0.458-2.57-1.198-3.616c-0.741-1.046-1.706-1.786-2.897-2.222c1.597-0.581,2.897-1.531,3.899-2.854
		c1.002-1.321,1.503-2.925,1.503-4.814c0-1.22-0.225-2.331-0.675-3.333c-0.451-1.002-1.053-1.858-1.808-2.57
		c-0.756-0.711-1.649-1.263-2.679-1.655c-1.031-0.392-2.142-0.588-3.333-0.588h-9.124v1.263h8.427c1.917,0,3.412,0.639,4.487,1.917
		c1.074,1.278,1.612,2.934,1.612,4.966c0,2.063-0.538,3.725-1.612,4.988c-1.075,1.263-2.57,1.895-4.487,1.895h-8.427v1.307h8.253
		c1.394,0,2.541,0.457,3.442,1.372c0.9,0.915,1.423,2.084,1.568,3.507c0.058,0.784,0.137,1.721,0.24,2.81
		c0.101,1.089,0.21,2.069,0.327,2.941c0.145,1.22,0.617,2.178,1.416,2.875c0.363,0.317,0.768,0.552,1.206,0.725l2.643-1.043
		c-0.056,0.004-0.112,0.013-0.168,0.013C114.699,29.977,114.176,29.715,113.799,29.193z"/>
	<path style="fill:#FFFFFF;" d="M85.362,29.193c-0.378-0.523-0.581-1.118-0.61-1.786c-0.029-0.377-0.058-0.791-0.087-1.242
		c-0.029-0.45-0.066-0.915-0.109-1.394c-0.044-0.479-0.087-0.951-0.131-1.416c-0.044-0.464-0.08-0.886-0.109-1.263
		c-0.058-1.365-0.457-2.57-1.198-3.616s-1.706-1.786-2.897-2.222c1.597-0.581,2.897-1.531,3.899-2.854
		c1.002-1.321,1.503-2.925,1.503-4.814c0-1.22-0.225-2.331-0.675-3.333c-0.451-1.002-1.053-1.858-1.808-2.57
		c-0.756-0.711-1.649-1.263-2.679-1.655c-1.031-0.392-2.142-0.588-3.333-0.588h-9.124v1.263h8.427c1.917,0,3.412,0.639,4.487,1.917
		c1.074,1.278,1.612,2.934,1.612,4.966c0,2.063-0.538,3.725-1.612,4.988c-1.075,1.263-2.57,1.895-4.487,1.895h-8.427v1.307h8.253
		c1.394,0,2.541,0.457,3.442,1.372c0.9,0.915,1.423,2.084,1.568,3.507c0.058,0.784,0.137,1.721,0.24,2.81
		c0.102,1.089,0.21,2.069,0.327,2.941c0.145,1.22,0.617,2.178,1.416,2.875c0.363,0.317,0.768,0.552,1.206,0.725l2.643-1.043
		c-0.056,0.004-0.112,0.013-0.168,0.013C86.262,29.977,85.739,29.715,85.362,29.193z"/>
	<path style="fill:#FFFFFF;" d="M221.013,16.142c1.477-0.579,2.678-1.484,3.606-2.715c0.926-1.231,1.389-2.743,1.389-4.54
		c0-1.216-0.217-2.324-0.652-3.323c-0.434-0.999-1.035-1.853-1.803-2.563c-0.768-0.709-1.658-1.259-2.671-1.651
		c-1.014-0.391-2.114-0.587-3.301-0.587h-8.921v1.26h8.226c1.911,0,3.402,0.63,4.474,1.89c1.071,1.26,1.607,2.918,1.607,4.974
		c0,2.028-0.536,3.671-1.607,4.931c-1.072,1.26-1.43,1.628-3.527,1.826l-5.985,0.652l5.993,0.627
		c2.042,0.13,3.402,0.602,4.474,1.803c1.071,1.202,1.607,2.773,1.607,4.714c0,1.941-0.536,3.512-1.607,4.713
		c-1.072,1.202-2.563,1.803-4.474,1.803h-9.182v1.26h9.877c1.187,0,2.295-0.188,3.323-0.565c1.027-0.376,1.918-0.905,2.672-1.586
		c0.753-0.68,1.353-1.499,1.803-2.454c0.448-0.956,0.673-2.013,0.673-3.171c0-1.882-0.564-3.468-1.694-4.757
		C224.184,17.395,222.75,16.548,221.013,16.142z"/>
	<polygon style="fill:#FFFFFF;" points="237.839,31.216 240.88,31.216 240.88,9.365 237.839,10.234 	"/>
	<path style="fill:#FFFFFF;" d="M197.494,13.207c-0.838,0-1.531,0.62-1.646,1.426c-0.019,0.102-0.03,0.206-0.03,0.313v1.726
		c0,0.089,0.007,0.177,0.021,0.263c0.082,0.842,0.792,1.5,1.655,1.5c0.863,0,1.573-0.658,1.655-1.5
		c0.014-0.086,0.021-0.174,0.021-0.263v-1.726c0-0.107-0.01-0.212-0.03-0.314C199.025,13.827,198.332,13.207,197.494,13.207z"/>
	<path style="fill:#FFFFFF;" d="M240.881,1.799c-0.105-0.736-0.742-1.302-1.51-1.302c-0.769,0-1.405,0.566-1.51,1.302
		c-0.018,0.093-0.027,0.188-0.027,0.286v1.575c0,0.082,0.007,0.162,0.019,0.24c0.075,0.769,0.726,1.369,1.519,1.369
		c0.792,0,1.443-0.601,1.519-1.369c0.012-0.078,0.019-0.159,0.019-0.24V2.086C240.908,1.988,240.899,1.892,240.881,1.799z"/>
	<polygon style="fill:#FFFFFF;" points="209.111,16.304 209.111,16.303 209.111,16.302 209.111,16.302 208.639,6.006 
		208.172,16.302 208.172,16.302 208.172,16.303 208.172,16.304 208.172,16.304 208.643,26.6 209.111,16.304 	"/>
</g>
</svg>
